<svg width="32" height="32" viewBox="0 0 32 32" fill="none" xmlns="http://www.w3.org/2000/svg">
<path d="M25.7948 5.56323C23.5712 4.25167 20.6357 3.52942 17.5294 3.52942H14.9706C11.8643 3.52942 8.92881 4.25167 6.70519 5.56323C4.31587 6.97248 3 8.90329 3 11V12H29.5V11C29.5 8.90329 28.1841 6.97248 25.7948 5.56323ZM5.175 9.99998C6.05956 7.49242 10.1866 5.52942 14.9707 5.52942H17.5296C22.3137 5.52942 26.4407 7.49242 27.3253 9.99998H5.175Z" fill="black"/>
<path d="M3 19H29.5V21H3V19Z" fill="black"/>
<path d="M24.2 14.0024C22.6509 14.0024 21.8394 14.3853 21.1233 14.723C20.4962 15.0188 20.0008 15.2524 18.8998 15.2524C17.7988 15.2524 17.3036 15.0188 16.6764 14.723C15.9604 14.3855 15.1489 14.0024 13.5999 14.0024C12.0509 14.0024 11.2393 14.3853 10.5233 14.723C9.89625 15.0188 9.40099 15.2524 8.30006 15.2524C7.19912 15.2524 6.70381 15.0188 6.07675 14.723C5.36075 14.3855 4.54918 14.0024 3.00018 14.0024V16.0024C4.10112 16.0024 4.59643 16.2361 5.2235 16.5319C5.9395 16.8694 6.75106 17.2524 8.30006 17.2524C9.84906 17.2524 10.6606 16.8696 11.3766 16.5319C12.0036 16.2361 12.4989 16.0024 13.5999 16.0024C14.7008 16.0024 15.1961 16.2361 15.8232 16.5319C16.5392 16.8694 17.3507 17.2524 18.8998 17.2524C20.4489 17.2524 21.2604 16.8696 21.9765 16.5319C22.6036 16.2361 23.0989 16.0024 24.2 16.0024C25.3011 16.0024 25.7964 16.2361 26.4235 16.5319C27.1396 16.8694 27.9511 17.2524 29.5002 17.2524V15.2524C28.3991 15.2524 27.9038 15.0188 27.2767 14.723C26.5604 14.3853 25.7489 14.0024 24.2 14.0024Z" fill="black"/>
<path d="M3 28C3.00046 28.3977 3.15865 28.7789 3.43985 29.0601C3.72106 29.3414 4.10232 29.4995 4.5 29.5H28C28.3977 29.4995 28.7789 29.3414 29.0601 29.0601C29.3414 28.7789 29.4995 28.3977 29.5 28V23H3V28ZM5 25H27.5V27.5H5V25Z" fill="black"/>
</svg>
